# xmcd
#
# Track frame offsets: 
#        150
#        17018
#        29812
#        43045
#        62190
#        76675
#        92663
#        109585
#
# Disc length: 1616 seconds
#
# Revision: 0
# Processed by: cddbd v1.5.2PL0 Copyright (c) Steve Scherf et al.
# Submitted via: ExactAudioCopy v1.0b3
#
DISCID=5d064e08
DTITLE=Tanya Cristina - Small Woman Big Voice
DYEAR=2012
DGENRE=Blues
TTITLE0=Small Woman Big Voice
TTITLE1=Grounded
TTITLE2=Like A Man Should
TTITLE3=Perfectly
TTITLE4=Best Part Of Me
TTITLE5=Holding On
TTITLE6=Ocean
TTITLE7=They Say
EXTD=
EXTT0=
EXTT1=
EXTT2=
EXTT3=
EXTT4=
EXTT5=
EXTT6=
EXTT7=
PLAYORDER=
